<?xml version="1.0" encoding="utf-8"?>
<!-- Generator: Adobe Illustrator 16.0.0, SVG Export Plug-In . SVG Version: 6.00 Build 0)  -->
<!DOCTYPE svg PUBLIC "-//W3C//DTD SVG 1.1//EN" "http://www.w3.org/Graphics/SVG/1.1/DTD/svg11.dtd">
<svg version="1.1" xmlns="http://www.w3.org/2000/svg" xmlns:xlink="http://www.w3.org/1999/xlink" x="0px" y="0px"
	 width="493.24px" height="293.2px" viewBox="0 0 493.24 293.2" enable-background="new 0 0 493.24 293.2" xml:space="preserve">
<g id="clearance_space">
	<rect x="0.001" y="0.079" fill="none" width="493.24" height="293.2"/>
</g>
<g id="art">
	<g>
		<g>
			<path d="M279.358,169.164l-0.729-1.723h-2.975l-0.729,1.723h-1.324l3.469-7.628h0.184l3.461,7.628H279.358z M277.144,163.909
				l-1.068,2.516h2.137L277.144,163.909z"/>
			<path d="M350.388,169.287c-2.379,0-4.055-1.641-4.055-3.88c0-2.229,1.697-3.889,4.055-3.889c0.934,0,1.787,0.299,2.424,0.686
				l-0.443,1.09c-0.596-0.34-1.334-0.576-2.002-0.576c-1.65,0-2.654,1.1-2.654,2.689c0,1.582,1.035,2.679,2.688,2.679
				c0.666,0,1.447-0.234,2.051-0.596l0.391,1.09C352.216,168.98,351.321,169.287,350.388,169.287"/>
			<path d="M358.024,169.287c-2.176,0-3.77-1.652-3.77-3.88c0-2.236,1.664-3.889,3.84-3.889s3.768,1.652,3.768,3.889
				C361.862,167.635,360.2,169.287,358.024,169.287 M358.065,162.669c-1.436,0-2.432,1.168-2.432,2.738
				c0,1.561,0.996,2.741,2.432,2.741c1.426,0,2.422-1.181,2.422-2.741C360.487,163.837,359.491,162.669,358.065,162.669"/>
			<polygon points="369.917,169.164 369.813,164.657 367.442,168.25 367.29,168.25 364.896,164.649 364.815,169.164 
				363.552,169.164 363.87,161.548 364.065,161.53 367.399,166.517 370.655,161.53 370.86,161.548 371.181,169.164 			"/>
			<path d="M375.71,166.743c-0.246,0-0.504-0.02-0.748-0.031v2.452h-1.285v-7.45c0.666-0.084,1.293-0.123,1.908-0.123
				c2.064,0,3.121,1.127,3.121,2.533C378.706,165.653,377.63,166.743,375.71,166.743 M375.802,162.771
				c-0.287,0-0.574,0.021-0.84,0.061v2.752c0.254,0.02,0.492,0.039,0.717,0.039c1.158,0,1.693-0.604,1.693-1.457
				C377.372,163.427,376.849,162.771,375.802,162.771"/>
			<polygon points="400.144,166.003 400.144,169.164 398.86,169.164 398.86,165.993 396.212,161.642 397.681,161.642 
				399.526,164.823 401.354,161.642 402.79,161.642 			"/>
			<path d="M384.97,169.164l-0.729-1.723h-2.977l-0.729,1.723h-1.324l3.469-7.626h0.184l3.461,7.626H384.97z M382.753,163.909
				l-1.066,2.516h2.135L382.753,163.909z"/>
			<polygon points="394.267,169.307 389.556,164.343 389.556,169.164 388.272,169.164 388.272,161.538 388.478,161.497 
				393.13,166.394 393.13,161.642 394.409,161.642 394.409,169.279 			"/>
			<path d="M292.442,165.183v3.282c-0.801,0.525-1.674,0.822-2.803,0.822c-2.145,0-3.992-1.561-3.992-3.88
				c0-2.34,1.877-3.889,3.992-3.889c1.109,0,1.9,0.305,2.67,0.779l-0.586,1.025c-0.605-0.389-1.324-0.625-2.021-0.625
				c-1.715,0-2.682,1.211-2.682,2.709c0,1.602,1.184,2.741,2.67,2.741c0.646,0,1.078-0.113,1.521-0.357v-1.481h-1.758v-1.127
				H292.442z"/>
			<path d="M299.665,169.164l-0.73-1.723h-2.975l-0.732,1.723h-1.322l3.469-7.626h0.184l3.459,7.626H299.665z M297.446,163.909
				l-1.068,2.516h2.137L297.446,163.909z"/>
			<polygon points="308.958,169.307 304.247,164.343 304.247,169.164 302.962,169.164 302.962,161.538 303.169,161.497 
				307.817,166.394 307.817,161.642 309.101,161.642 309.101,169.279 			"/>
			<polygon points="317.655,169.307 312.944,164.343 312.944,169.164 311.663,169.164 311.663,161.538 311.868,161.497 
				316.515,166.394 316.515,161.642 317.798,161.642 317.798,169.279 			"/>
			<polygon points="320.362,169.164 320.362,161.642 324.948,161.642 324.948,162.81 321.646,162.81 321.646,164.78 324.632,164.78 
				324.632,165.911 321.646,165.911 321.646,167.994 324.948,167.994 324.948,169.164 			"/>
			<polygon points="330.595,162.812 330.595,169.164 329.312,169.164 329.312,162.812 326.919,162.812 326.919,161.642 
				332.976,161.642 332.976,162.812 			"/>
			<polygon points="338.192,162.812 338.192,169.164 336.909,169.164 336.909,162.812 334.517,162.812 334.517,161.642 
				340.573,161.642 340.573,162.812 			"/>
		</g>
	</g>
	<g>
		<path d="M445.817,145.934v-4.42h-1.652v-0.591h3.973v0.591h-1.658v4.42H445.817z"/>
		<path d="M448.798,145.934v-5.011h0.998l1.186,3.548c0.109,0.33,0.189,0.577,0.238,0.741c0.059-0.182,0.146-0.45,0.268-0.803
			l1.199-3.486h0.893v5.011h-0.639v-4.194l-1.457,4.194h-0.598l-1.449-4.266v4.266H448.798z"/>
	</g>
	<g>
		<g>
			<g>
				<path d="M253.742,145.996c0,59.645-48.354,107.998-108.002,107.998c-59.645,0-107.998-48.354-107.998-107.998
					c0-59.648,48.354-108.002,107.998-108.002C205.389,37.994,253.742,86.348,253.742,145.996z"/>
			</g>
		</g>
	</g>
	<g>
		<path d="M269.036,85.674V61.092h11.053v21.392c0,4.234,0.441,8.359,5.994,8.359c5.555,0,5.996-4.125,5.996-8.359V61.092h11.053
			v24.582c0,9.514-6.104,14.793-17.049,14.793C274.81,100.467,269.036,95.188,269.036,85.674z"/>
		<path d="M306.106,94.857l5.334-7.369c1.98,2.364,5.279,4.509,9.074,4.509c2.859,0,4.564-1.209,4.564-3.464
			c0-2.695-2.475-3.465-6.654-4.729c-5.609-1.705-10.559-4.619-10.559-11.273c0-7.314,5.994-12.209,14.463-12.209
			c5.885,0,10.34,1.815,13.145,4.455l-5.006,7.369c-1.594-1.815-4.289-3.354-7.588-3.354c-2.859,0-4.07,1.154-4.07,2.694
			c0,2.42,2.916,3.079,6.105,4.069c6.268,1.979,11.107,4.84,11.107,11.934c0,7.424-5.334,12.979-14.957,12.979
			C313.97,100.467,308.472,97.441,306.106,94.857z"/>
		<path d="M350.874,61.092h12.154l14.352,38.604h-11.492l-1.814-5.554h-14.574l-1.76,5.554h-11.217L350.874,61.092z M361.269,85.344
			l-2.971-9.294c-0.605-1.814-1.1-4.125-1.32-5.774h-0.33c-0.219,1.649-0.715,3.96-1.318,5.774l-2.971,9.294H361.269z"/>
		<path d="M278.716,116.355h-9.514v-8.964h30.08v8.964h-9.514v29.641h-11.053V116.355z"/>
		<path d="M300.056,126.749c0-9.514,6.818-20.128,21.172-20.128c14.41,0,21.229,10.614,21.229,20.128
			c0,9.459-6.818,20.018-21.229,20.018C306.874,146.767,300.056,136.208,300.056,126.749z M331.071,126.749
			c0-6.93-4.508-10.504-9.898-10.504c-5.279,0-9.789,3.574-9.789,10.504c0,6.874,4.51,10.394,9.789,10.394
			C326.563,137.143,331.071,133.623,331.071,126.749z"/>
		<path d="M346.421,107.392h14.242c13.639,0,21.447,7.259,21.447,19.303c0,11.823-8.027,19.302-21.447,19.302h-14.242V107.392z
			 M357.474,137.088h2.365c7.094,0,10.889-3.41,10.889-10.394c0-6.984-3.795-10.395-10.889-10.395h-2.365V137.088z"/>
		<path d="M394.929,107.392h12.154l14.352,38.604h-11.492l-1.814-5.554h-14.574l-1.76,5.554h-11.219L394.929,107.392z
			 M405.323,131.644l-2.971-9.294c-0.605-1.814-1.1-4.125-1.32-5.774h-0.33c-0.219,1.649-0.715,3.96-1.32,5.774l-2.969,9.294
			H405.323z"/>
		<path d="M428.259,132.248l-14.408-24.856h12.098l5.225,9.514c1.1,2.034,2.641,5.114,2.971,7.149h0.219
			c0.33-2.035,1.871-5.115,2.971-7.149l5.225-9.514h11.768l-14.408,24.856v13.748h-11.658V132.248z"/>
	</g>
</g>
</svg>
