<?xml version="1.0" encoding="utf-8"?>
<!-- Generator: Adobe Illustrator 16.0.0, SVG Export Plug-In . SVG Version: 6.00 Build 0)  -->
<!DOCTYPE svg PUBLIC "-//W3C//DTD SVG 1.1//EN" "http://www.w3.org/Graphics/SVG/1.1/DTD/svg11.dtd">
<svg version="1.1" id="Layer_1" xmlns="http://www.w3.org/2000/svg" xmlns:xlink="http://www.w3.org/1999/xlink" x="0px" y="0px"
	 width="72.333px" height="14.5px" viewBox="0 0 72.333 14.5" enable-background="new 0 0 72.333 14.5" xml:space="preserve">
<g>
	<path d="M59.891,9.099v-1.75l-0.479,0.047c-0.478,0.046-0.869,0.362-0.869,0.956c0,0.684,0.376,0.983,0.772,0.983
		C59.545,9.335,59.778,9.223,59.891,9.099 M58.438,4.771l-0.437,1.266h-1.067V4.41c0.578-0.179,1.394-0.471,2.483-0.471
		c1.653,0,2.532,0.65,2.532,2.042v3.371l0.731,0.304v0.543c-0.202,0.107-0.808,0.246-1.306,0.246c-0.646,0-1.15-0.206-1.246-0.874
		h-0.056c-0.275,0.555-1.008,0.886-1.778,0.886c-1.1,0-1.791-0.706-1.791-1.738c0-1.269,0.838-1.548,2.199-1.829l1.188-0.202V5.938
		c0-0.797-0.24-1.193-1.032-1.193C58.757,4.745,58.562,4.76,58.438,4.771"/>
	<path d="M37.553,9.099v-1.75l-0.479,0.047c-0.477,0.046-0.868,0.362-0.868,0.956c0,0.684,0.377,0.983,0.773,0.983
		C37.207,9.335,37.44,9.223,37.553,9.099 M36.1,4.771l-0.437,1.266h-1.066V4.41c0.578-0.179,1.394-0.471,2.482-0.471
		c1.653,0,2.533,0.65,2.533,2.042v3.371l0.731,0.304v0.543c-0.202,0.107-0.808,0.246-1.306,0.246c-0.646,0-1.15-0.206-1.246-0.874
		h-0.056c-0.275,0.555-1.008,0.886-1.779,0.886c-1.1,0-1.79-0.706-1.79-1.738c0-1.269,0.838-1.548,2.198-1.829l1.188-0.202V5.938
		c0-0.797-0.24-1.193-1.032-1.193C36.419,4.745,36.225,4.76,36.1,4.771"/>
	<path d="M2.836,8.572V5.14H1.886V4.201l0.951-0.127V2.902l2.051-0.287v1.459h1.36V5.14h-1.36v3.253c0,0.606,0.171,0.92,0.771,0.92
		c0.215,0,0.507-0.024,0.656-0.05v0.803c-0.335,0.193-1.035,0.358-1.681,0.358C3.41,10.424,2.836,9.885,2.836,8.572"/>
	<path d="M17.01,4.692c0.515,0,0.793,0.221,0.793,1.839l-1.72,0.1C16.083,5.172,16.356,4.692,17.01,4.692 M16.101,7.371h3.696
		c0-2.604-0.895-3.432-2.753-3.432c-1.847,0-3.06,1.189-3.06,3.23c0,2.109,1.099,3.275,3.229,3.275c1.146,0,2.071-0.505,2.357-0.897
		V8.942c-0.43,0.135-0.872,0.214-1.666,0.214C16.786,9.156,16.21,8.578,16.101,7.371"/>
	<path d="M23.154,12.323c-1.126,0-1.614-0.283-1.614-0.714c0-0.303,0.09-0.577,0.29-0.754h2.428c0.51,0,0.906,0.072,0.906,0.532
		C25.163,12.027,24.561,12.323,23.154,12.323 M23.209,4.693c0.448,0,0.739,0.33,0.739,1.367c0,1.035-0.295,1.3-0.739,1.3
		c-0.443,0-0.731-0.265-0.731-1.3C22.478,5.023,22.761,4.693,23.209,4.693 M24.456,8.974h-2.063c-0.312,0-0.513-0.204-0.513-0.417
		c0-0.167,0.045-0.418,0.194-0.539c0.338,0.102,0.72,0.152,1.135,0.152c1.598,0,2.691-0.7,2.691-2.047
		c0-0.608-0.213-0.95-0.61-1.304l0.021-0.052l1.074,0.33V3.934h-0.12l-1.541,0.274h-0.088c-0.385-0.142-0.93-0.258-1.427-0.258
		c-1.597,0-2.704,0.764-2.704,2.11c0,0.82,0.337,1.424,1.019,1.771v0.064c-0.568,0.421-1.03,0.989-1.03,1.494
		c0,0.481,0.34,1.04,0.998,1.197v0.065c-0.564,0.197-1.371,0.408-1.371,1.081c0,0.83,1.033,1.402,2.983,1.402
		c2.422,0,3.508-0.984,3.508-2.46C26.612,9.465,25.824,8.974,24.456,8.974"/>
	<polygon points="52.75,4.344 52.75,4.981 53.514,5.301 53.514,9.353 52.782,9.656 52.782,10.301 56.31,10.301 56.31,9.656 
		55.576,9.353 55.576,3.933 55.403,3.933 	"/>
	<path d="M40.615,4.344v0.638l0.765,0.319v4.052l-0.733,0.304v0.645h3.79V9.656l-0.994-0.304L43.44,5.981
		c0.352-0.169,0.816-0.225,1.372-0.225c0.182,0,0.396,0.022,0.521,0.056V4.006c-0.068-0.022-0.204-0.032-0.306-0.032
		c-0.68,0-1.235,0.437-1.599,1.267h-0.067V3.933h-0.173L40.615,4.344"/>
	<path d="M54.539,1.381c0.605,0,1.094,0.488,1.094,1.093s-0.489,1.095-1.094,1.095c-0.604,0-1.094-0.49-1.094-1.095
		S53.935,1.381,54.539,1.381"/>
	<path d="M49.633,2.755l-0.837-0.318V1.8l2.727-0.412h0.173v7.773l0.729,0.359v0.611L49.9,10.409l-0.175-0.001V9.763h-0.068
		c-0.258,0.329-0.79,0.673-1.56,0.673c-1.134,0-2.481-0.719-2.481-3.098c0-2.501,1.378-3.399,3.021-3.399
		c0.339,0,0.748,0.079,0.997,0.258V2.755 M49.632,9.204V5.015c-0.158-0.123-0.327-0.224-0.701-0.224
		c-0.646,0-1.141,0.584-1.141,2.335c0,1.533,0.393,2.199,1.208,2.199C49.314,9.325,49.493,9.262,49.632,9.204"/>
	<path d="M27.449,5.301l-0.767-0.319V4.344l2.653-0.411h0.174v4.371c0,0.707,0.345,0.831,0.867,0.831
		c0.385,0,0.537-0.066,0.741-0.146V5.301l-0.766-0.319V4.344l2.655-0.411h0.173v5.303l0.762,0.359v0.537l-2.579,0.277l-0.175-0.001
		l-0.001-0.825h-0.068c-0.396,0.493-1.05,0.853-1.888,0.853c-1.247,0-1.779-0.889-1.779-1.965V5.301"/>
	<path d="M6.698,9.655L7.43,9.353V2.751L6.665,2.432V1.794l2.632-0.411h0.173v3.375h0.068c0.555-0.504,1.302-0.818,2.141-0.818
		c1.043,0,1.563,0.521,1.563,1.658v3.755l0.734,0.303v0.646h-3.458V9.655l0.66-0.303v-3.22c0-0.628-0.277-0.864-0.836-0.864
		c-0.307,0-0.601,0.056-0.85,0.157v3.927l0.66,0.303v0.646H6.698V9.655"/>
	<path d="M63.052,9.655l0.73-0.303V5.301l-0.765-0.319V4.344l2.632-0.411h0.173v0.825h0.067c0.555-0.504,1.302-0.818,2.141-0.818
		c1.042,0,1.562,0.521,1.562,1.658v3.755l0.736,0.303v0.646h-3.458V9.655l0.661-0.303v-3.22c0-0.628-0.277-0.864-0.837-0.864
		c-0.307,0-0.6,0.056-0.85,0.157v3.927l0.661,0.303v0.646h-3.454V9.655"/>
</g>
</svg>
