<?xml version="1.0" encoding="utf-8"?>
<!-- Generator: Adobe Illustrator 16.0.0, SVG Export Plug-In . SVG Version: 6.00 Build 0)  -->
<!DOCTYPE svg PUBLIC "-//W3C//DTD SVG 1.1//EN" "http://www.w3.org/Graphics/SVG/1.1/DTD/svg11.dtd">
<svg version="1.1" id="Layer_1" xmlns="http://www.w3.org/2000/svg" xmlns:xlink="http://www.w3.org/1999/xlink" x="0px" y="0px"
	 width="360px" height="193px" viewBox="0 82.5 360 193" enable-background="new 0 82.5 360 193" xml:space="preserve">
<g>
	<g>
		<path d="M24.415,177.228c0-48.603,39.403-88.006,88.005-88.006c48.603,0,88.008,39.404,88.008,88.006
			c0,48.604-39.406,88.002-88.008,88.002C63.817,265.23,24.415,225.831,24.415,177.228z M162.872,177.866h9.513l-21.36-48.753
			h-13.997l21.443,48.753H148.7v12.931c0.028,7.842-3.251,11.189-13.904,11.053v24.963h13.871V201.85h4.579
			c4.059,0.109,9.553-3.188,9.626-9.594V177.866z M95.648,129.113c-21.439,0-39.074,14.971-39.074,37.175
			c0,18.675,11.239,32.005,28.016,34.552v25.973h34.92V201.85h4.848c5.656-0.553,9.495-4.297,9.556-9.547v-14.437h9.511
			l-21.64-48.753C121.785,129.113,109.022,129.113,95.648,129.113z M114.931,171.398c4.97,0,9.001-4.029,9.001-9.001
			s-4.032-9.003-9.001-9.003c-4.973,0-9.005,4.031-9.005,9.003S109.958,171.398,114.931,171.398z"/>
	</g>
	<g>
		<path d="M228.617,160.98h-6.126v-7.585h20.258c10.998,0,17.291,5.673,17.291,14.583c0,9.081-6.589,14.612-16.998,14.612
			c-0.873,0.012-5.556,0-5.556,0v11.531h7.178v7.628h-22.247v-7.628h6.2V160.98z M237.486,174.977c0,0,4.357,0,5.914,0
			c5.029,0,7.773-3.135,7.773-6.999c0-4.004-2.888-7.01-7.773-7.01c-0.877,0-5.914,0-5.914,0V174.977z"/>
		<path d="M268.693,160.98h-5.565v-7.585h19.437c12.033,0,15.867,7.206,15.867,12.45c0,4.455-2.367,8.032-5.832,9.726
			c4.863,2.029,7.592,7.025,7.592,11.404c0,10.533-8.271,14.774-16.188,14.774h-21.517v-7.628h6.207V160.98z M277.553,194.121
			c0,0,5.256,0,5.645,0c4.662,0,7.811-2.562,7.811-6.891c0-3.66-2.449-6.849-7.811-6.849c-1.86,0-5.645,0-5.645,0V194.121z
			 M277.553,172.751h5.301c3.99,0,6.674-2.359,6.674-5.901c0-3.497-2.655-5.876-6.674-5.876c-1.64,0-5.301,0-5.301,0V172.751z"/>
		<path d="M328.716,160.887c-1.585-0.615-3.664-1.166-5.739-1.166c-5.928,0-7.822,3.433-7.822,6.11c0,3.5,2.262,4.528,5.074,5.282
			l5.129,1.442c6.291,1.787,13.258,4.119,13.258,14.074c0,9.128-5.496,15.786-17.651,15.786c-4.709,0-9.596-0.552-15.337-2.675
			v-12.701h8.923v6.314c2.257,1.028,4.701,1.235,7.207,1.235c5.253,0,7.573-2.815,7.573-6.453c0-2.473-1.227-4.252-6.966-5.903
			l-4.701-1.371c-8.801-2.542-11.792-6.383-11.792-13.799c0-7.617,4.766-14.345,16.857-14.345c5.197,0,10.391,0.96,14.052,2.541
			v11.463h-8.063L328.716,160.887L328.716,160.887z"/>
	</g>
</g>
</svg>
